<svg width="55" height="54" viewBox="0 0 55 54" fill="none" xmlns="http://www.w3.org/2000/svg">
<rect width="55" height="54" rx="27" fill="url(#paint0_linear_21_1810)"/>
<path d="M39.5929 15.8141H15.4071C14.9113 15.8141 14.5001 15.4029 14.5001 14.9071C14.5001 14.4113 14.9113 14.0001 15.4071 14.0001H39.5929C40.0887 14.0001 40.4999 14.4113 40.4999 14.9071C40.4999 15.4029 40.0887 15.8141 39.5929 15.8141Z" fill="white"/>
<path d="M33.1478 39.5041C32.9906 39.8185 32.6641 39.9999 32.3376 39.9999C32.2045 39.9999 32.0594 39.9637 31.9385 39.9032L27.5004 37.6902L23.0622 39.9032C22.9413 39.9637 22.7962 39.9999 22.6632 39.9999C22.3367 39.9999 22.0102 39.8185 21.853 39.5041C21.6232 39.0446 21.8046 38.5004 22.2641 38.2827L26.5934 36.1181V33.0465H28.4074V36.1181L32.7366 38.2827C33.1962 38.5004 33.3776 39.0446 33.1478 39.5041Z" fill="white"/>
<path d="M16.6163 14.9071V29.5395C16.6163 31.8372 17.8256 33.0465 20.1233 33.0465H34.8766C37.1743 33.0465 38.3836 31.8372 38.3836 29.5395V14.9071H16.6163ZM33.5222 22.8642L29.713 26.0447C29.3623 26.3349 28.9148 26.4558 28.4916 26.3833C28.0562 26.3107 27.6814 26.0447 27.4516 25.6577L26.1818 23.5415L22.6386 26.4921C22.4693 26.6372 22.2637 26.6977 22.0581 26.6977C21.8042 26.6977 21.5382 26.5889 21.3568 26.3712C21.0302 25.9842 21.0907 25.4159 21.4777 25.0893L25.287 21.9089C25.6377 21.6187 26.0851 21.4977 26.5083 21.5703C26.9437 21.6429 27.3186 21.9089 27.5483 22.2959L28.8181 24.4121L32.3613 21.4615C32.7483 21.135 33.3167 21.1954 33.6432 21.5824C33.9576 21.9694 33.9092 22.5377 33.5222 22.8642Z" fill="white"/>
<defs>
<linearGradient id="paint0_linear_21_1810" x1="49.5455" y1="50.175" x2="8.87897" y2="2.9702" gradientUnits="userSpaceOnUse">
<stop stop-color="#007CBD"/>
<stop offset="1" stop-color="#3EB7DD"/>
</linearGradient>
</defs>
</svg>
